<?xml version="1.0" encoding="UTF-8"?>
<svg id="SYMBOL_COLOR" data-name="SYMBOL COLOR" xmlns="http://www.w3.org/2000/svg" viewBox="0 0 1500 1500">
  <defs>
    <style>
      .cls-1 {
        fill: #e9a124;
        stroke-width: 0px;
      }
    </style>
  </defs>
  <g id="SYMBOL">
    <polygon class="cls-1" points="657.32 378.98 378.98 378.98 378.98 657.32 657.32 378.98"/>
    <polygon class="cls-1" points="519.75 716.07 378.98 856.84 378.98 1121.02 924.71 1121.02 519.75 716.07"/>
    <path class="cls-1" d="M856.84,378.98l-237.33,237.33,501.51,501.51V378.98h-264.18ZM832.52,667.5s0,0,0,0c-52.53-52.53-52.53-137.69,0-190.22,51.22-51.22,133.47-52.47,186.23-3.79-16.81,28.31-38.94,34.82-66.71,42.94-15.46,4.52-32.98,9.64-50.42,19.39-34.81,19.42-53.89,55.58-49.81,94.37,2.76,26.28,15.45,50.6,35.73,70.59-20.13-6.26-39.08-17.34-55.02-33.28h0ZM1022.73,667.49c-22.66,22.66-51.41,35.52-80.98,38.63-41.87-20.91-60.09-52.96-62.81-78.8-2.96-28.15,10.49-53.45,35.97-67.68,14.76-8.23,30.02-12.7,44.78-17.02h0c27.57-8.07,55.79-16.36,77.69-47.97,37.28,52.52,32.42,125.77-14.65,172.84Z"/>
  </g>
</svg>